<mxfile host="app.diagrams.net" modified="2024-04-15T15:00:30.002Z" agent="Mozilla/5.0 (Windows NT 10.0; Win64; x64) AppleWebKit/537.36 (KHTML, like Gecko) Chrome/123.0.0.0 Safari/537.36" etag="NsJMW1y2Iuo1ZVUxvn19" version="24.2.5" type="device">
  <diagram name="PÃ¡gina-1" id="NMRrZpDC7VqTD1VT41rS">
    <mxGraphModel dx="1434" dy="772" grid="1" gridSize="10" guides="1" tooltips="1" connect="1" arrows="1" fold="1" page="1" pageScale="1" pageWidth="827" pageHeight="1169" math="0" shadow="0">
      <root>
        <mxCell id="0" />
        <mxCell id="1" parent="0" />
        <mxCell id="rgEbHUS03kwm7PpUG_OP-4" value="" style="edgeStyle=orthogonalEdgeStyle;rounded=0;orthogonalLoop=1;jettySize=auto;html=1;" edge="1" parent="1" source="rgEbHUS03kwm7PpUG_OP-1" target="rgEbHUS03kwm7PpUG_OP-3">
          <mxGeometry relative="1" as="geometry" />
        </mxCell>
        <mxCell id="rgEbHUS03kwm7PpUG_OP-1" value="Comparar Numeros" style="ellipse;whiteSpace=wrap;html=1;" vertex="1" parent="1">
          <mxGeometry x="354" y="70" width="120" height="80" as="geometry" />
        </mxCell>
        <mxCell id="rgEbHUS03kwm7PpUG_OP-6" value="" style="edgeStyle=orthogonalEdgeStyle;rounded=0;orthogonalLoop=1;jettySize=auto;html=1;" edge="1" parent="1" source="rgEbHUS03kwm7PpUG_OP-3" target="rgEbHUS03kwm7PpUG_OP-5">
          <mxGeometry relative="1" as="geometry" />
        </mxCell>
        <mxCell id="rgEbHUS03kwm7PpUG_OP-3" value="Ingresa num 1" style="whiteSpace=wrap;html=1;" vertex="1" parent="1">
          <mxGeometry x="354" y="180" width="120" height="60" as="geometry" />
        </mxCell>
        <mxCell id="rgEbHUS03kwm7PpUG_OP-8" value="" style="edgeStyle=orthogonalEdgeStyle;rounded=0;orthogonalLoop=1;jettySize=auto;html=1;" edge="1" parent="1" source="rgEbHUS03kwm7PpUG_OP-5" target="rgEbHUS03kwm7PpUG_OP-7">
          <mxGeometry relative="1" as="geometry" />
        </mxCell>
        <mxCell id="rgEbHUS03kwm7PpUG_OP-5" value="Ingresa num 2" style="whiteSpace=wrap;html=1;" vertex="1" parent="1">
          <mxGeometry x="354" y="260" width="120" height="60" as="geometry" />
        </mxCell>
        <mxCell id="rgEbHUS03kwm7PpUG_OP-10" value="" style="edgeStyle=orthogonalEdgeStyle;rounded=0;orthogonalLoop=1;jettySize=auto;html=1;" edge="1" parent="1" source="rgEbHUS03kwm7PpUG_OP-7" target="rgEbHUS03kwm7PpUG_OP-9">
          <mxGeometry relative="1" as="geometry" />
        </mxCell>
        <mxCell id="rgEbHUS03kwm7PpUG_OP-16" value="" style="edgeStyle=orthogonalEdgeStyle;rounded=0;orthogonalLoop=1;jettySize=auto;html=1;" edge="1" parent="1" source="rgEbHUS03kwm7PpUG_OP-7" target="rgEbHUS03kwm7PpUG_OP-15">
          <mxGeometry relative="1" as="geometry" />
        </mxCell>
        <mxCell id="rgEbHUS03kwm7PpUG_OP-7" value="num1==num2" style="rhombus;whiteSpace=wrap;html=1;" vertex="1" parent="1">
          <mxGeometry x="356" y="350" width="116" height="120" as="geometry" />
        </mxCell>
        <mxCell id="rgEbHUS03kwm7PpUG_OP-28" style="edgeStyle=orthogonalEdgeStyle;rounded=0;orthogonalLoop=1;jettySize=auto;html=1;entryX=0;entryY=0.5;entryDx=0;entryDy=0;" edge="1" parent="1" source="rgEbHUS03kwm7PpUG_OP-9" target="rgEbHUS03kwm7PpUG_OP-26">
          <mxGeometry relative="1" as="geometry">
            <Array as="points">
              <mxPoint x="80" y="410" />
              <mxPoint x="80" y="810" />
            </Array>
          </mxGeometry>
        </mxCell>
        <mxCell id="rgEbHUS03kwm7PpUG_OP-9" value="&quot;Los num son iguales&quot;" style="whiteSpace=wrap;html=1;" vertex="1" parent="1">
          <mxGeometry x="158" y="380" width="120" height="60" as="geometry" />
        </mxCell>
        <mxCell id="rgEbHUS03kwm7PpUG_OP-20" value="" style="edgeStyle=orthogonalEdgeStyle;rounded=0;orthogonalLoop=1;jettySize=auto;html=1;" edge="1" parent="1" source="rgEbHUS03kwm7PpUG_OP-15" target="rgEbHUS03kwm7PpUG_OP-19">
          <mxGeometry relative="1" as="geometry" />
        </mxCell>
        <mxCell id="rgEbHUS03kwm7PpUG_OP-24" value="" style="edgeStyle=orthogonalEdgeStyle;rounded=0;orthogonalLoop=1;jettySize=auto;html=1;" edge="1" parent="1" source="rgEbHUS03kwm7PpUG_OP-15" target="rgEbHUS03kwm7PpUG_OP-23">
          <mxGeometry relative="1" as="geometry" />
        </mxCell>
        <mxCell id="rgEbHUS03kwm7PpUG_OP-15" value="num1&amp;gt;num2" style="rhombus;whiteSpace=wrap;html=1;" vertex="1" parent="1">
          <mxGeometry x="356" y="500" width="116" height="110" as="geometry" />
        </mxCell>
        <mxCell id="rgEbHUS03kwm7PpUG_OP-17" value="Si" style="text;html=1;align=center;verticalAlign=middle;whiteSpace=wrap;rounded=0;" vertex="1" parent="1">
          <mxGeometry x="314" y="380" width="60" height="30" as="geometry" />
        </mxCell>
        <mxCell id="rgEbHUS03kwm7PpUG_OP-18" value="No" style="text;html=1;align=center;verticalAlign=middle;whiteSpace=wrap;rounded=0;" vertex="1" parent="1">
          <mxGeometry x="414" y="460" width="60" height="30" as="geometry" />
        </mxCell>
        <mxCell id="rgEbHUS03kwm7PpUG_OP-29" style="edgeStyle=orthogonalEdgeStyle;rounded=0;orthogonalLoop=1;jettySize=auto;html=1;" edge="1" parent="1" source="rgEbHUS03kwm7PpUG_OP-19">
          <mxGeometry relative="1" as="geometry">
            <mxPoint x="80" y="555" as="targetPoint" />
          </mxGeometry>
        </mxCell>
        <mxCell id="rgEbHUS03kwm7PpUG_OP-19" value="&quot;num1 es mayor a num2&quot;" style="whiteSpace=wrap;html=1;" vertex="1" parent="1">
          <mxGeometry x="158" y="525" width="120" height="60" as="geometry" />
        </mxCell>
        <mxCell id="rgEbHUS03kwm7PpUG_OP-21" value="Si" style="text;html=1;align=center;verticalAlign=middle;whiteSpace=wrap;rounded=0;" vertex="1" parent="1">
          <mxGeometry x="314" y="525" width="60" height="30" as="geometry" />
        </mxCell>
        <mxCell id="rgEbHUS03kwm7PpUG_OP-27" style="edgeStyle=orthogonalEdgeStyle;rounded=0;orthogonalLoop=1;jettySize=auto;html=1;entryX=0.5;entryY=0;entryDx=0;entryDy=0;" edge="1" parent="1" source="rgEbHUS03kwm7PpUG_OP-23" target="rgEbHUS03kwm7PpUG_OP-26">
          <mxGeometry relative="1" as="geometry" />
        </mxCell>
        <mxCell id="rgEbHUS03kwm7PpUG_OP-23" value="&quot;num2 es mayor a num1&quot;" style="whiteSpace=wrap;html=1;" vertex="1" parent="1">
          <mxGeometry x="354" y="650" width="120" height="60" as="geometry" />
        </mxCell>
        <mxCell id="rgEbHUS03kwm7PpUG_OP-25" value="No" style="text;html=1;align=center;verticalAlign=middle;whiteSpace=wrap;rounded=0;" vertex="1" parent="1">
          <mxGeometry x="412" y="610" width="60" height="30" as="geometry" />
        </mxCell>
        <mxCell id="rgEbHUS03kwm7PpUG_OP-26" value="Fin" style="ellipse;whiteSpace=wrap;html=1;" vertex="1" parent="1">
          <mxGeometry x="354" y="770" width="120" height="80" as="geometry" />
        </mxCell>
      </root>
    </mxGraphModel>
  </diagram>
</mxfile>
